SplineFontDB: 3.2
FontName: BackToEarth
FullName: Back to Earth
FamilyName: BackToEarth
Weight: Regular
Copyright: Copyright (c) 2024, Noah Hebert
UComments: "2024-9-1: Created with FontForge (http://fontforge.org)"
Version: 001.000
ItalicAngle: 0
UnderlinePosition: -100
UnderlineWidth: 50
Ascent: 800
Descent: 200
InvalidEm: 0
LayerCount: 2
Layer: 0 0 "Back" 1
Layer: 1 0 "Fore" 0
XUID: [1021 891 860956777 4455545]
StyleMap: 0x0000
FSType: 0
OS2Version: 0
OS2_WeightWidthSlopeOnly: 0
OS2_UseTypoMetrics: 1
CreationTime: 1725224924
ModificationTime: 1725233968
OS2TypoAscent: 0
OS2TypoAOffset: 1
OS2TypoDescent: 0
OS2TypoDOffset: 1
OS2TypoLinegap: 90
OS2WinAscent: 0
OS2WinAOffset: 1
OS2WinDescent: 0
OS2WinDOffset: 1
HheadAscent: 0
HheadAOffset: 1
HheadDescent: 0
HheadDOffset: 1
OS2Vendor: 'PfEd'
MarkAttachClasses: 1
DEI: 91125
Encoding: ISO8859-1
UnicodeInterp: none
NameList: AGL For New Fonts
DisplaySize: -48
AntiAlias: 1
FitToEm: 0
WinInfo: 0 19 14
BeginPrivate: 0
EndPrivate
BeginChars: 256 95

StartChar: zero
Encoding: 48 48 0
Width: 480
Flags: HW
LayerCount: 2
Fore
SplineSet
320 0 m 1
 320 80 l 1
 80 80 l 1
 80 0 l 1
 320 0 l 1
320 80 m 1
 400 80 l 1
 400 480 l 1
 320 480 l 1
 320 400 l 1
 240 400 l 1
 240 320 l 1
 160 320 l 1
 160 240 l 1
 80 240 l 1
 80 480 l 1
 0 480 l 1
 0 80 l 1
 80 80 l 1
 80 160 l 1
 160 160 l 1
 160 240 l 1
 240 240 l 1
 240 320 l 1
 320 320 l 1
 320 80 l 1
320 480 m 1
 320 560 l 1
 80 560 l 1
 80 480 l 1
 320 480 l 1
EndSplineSet
Validated: 5
EndChar

StartChar: one
Encoding: 49 49 1
Width: 480
Flags: HW
LayerCount: 2
Fore
SplineSet
400 0 m 1
 400 80 l 1
 240 80 l 1
 240 560 l 1
 160 560 l 1
 160 480 l 1
 80 480 l 1
 80 400 l 1
 160 400 l 1
 160 80 l 1
 0 80 l 1
 0 0 l 1
 400 0 l 1
EndSplineSet
Validated: 9
EndChar

StartChar: two
Encoding: 50 50 2
Width: 480
Flags: HW
LayerCount: 2
Fore
SplineSet
400 0 m 1
 400 80 l 1
 160 80 l 1
 160 160 l 1
 80 160 l 1
 80 80 l 1
 0 80 l 1
 0 0 l 1
 400 0 l 1
160 160 m 1
 240 160 l 1
 240 240 l 1
 160 240 l 1
 160 160 l 1
240 240 m 1
 320 240 l 1
 320 320 l 1
 240 320 l 1
 240 240 l 1
320 320 m 1
 400 320 l 1
 400 480 l 1
 320 480 l 1
 320 320 l 1
80 400 m 1
 80 480 l 1
 0 480 l 1
 0 400 l 1
 80 400 l 1
320 480 m 1
 320 560 l 1
 80 560 l 1
 80 480 l 1
 320 480 l 1
EndSplineSet
EndChar

StartChar: three
Encoding: 51 51 3
Width: 480
Flags: HW
LayerCount: 2
Fore
SplineSet
320 0 m 1
 320 80 l 1
 80 80 l 1
 80 0 l 1
 320 0 l 1
320 80 m 1
 400 80 l 1
 400 240 l 1
 320 240 l 1
 320 80 l 1
80 80 m 1
 80 160 l 1
 0 160 l 1
 0 80 l 1
 80 80 l 1
320 240 m 1
 320 320 l 1
 160 320 l 1
 160 240 l 1
 320 240 l 1
320 320 m 1
 400 320 l 1
 400 480 l 1
 320 480 l 1
 320 320 l 1
80 400 m 1
 80 480 l 1
 0 480 l 1
 0 400 l 1
 80 400 l 1
320 480 m 1
 320 560 l 1
 80 560 l 1
 80 480 l 1
 320 480 l 1
EndSplineSet
EndChar

StartChar: four
Encoding: 52 52 4
Width: 480
Flags: HW
LayerCount: 2
Fore
SplineSet
320 0 m 1
 320 160 l 1
 400 160 l 1
 400 240 l 1
 320 240 l 1
 320 560 l 1
 240 560 l 1
 240 480 l 1
 160 480 l 1
 160 400 l 1
 80 400 l 1
 80 320 l 1
 0 320 l 1
 0 160 l 1
 240 160 l 1
 240 0 l 1
 320 0 l 1
240 240 m 1
 80 240 l 1
 80 320 l 1
 160 320 l 1
 160 400 l 1
 240 400 l 1
 240 240 l 1
EndSplineSet
EndChar

StartChar: five
Encoding: 53 53 5
Width: 480
Flags: HW
LayerCount: 2
Fore
SplineSet
320 0 m 1
 320 80 l 1
 0 80 l 1
 0 0 l 1
 320 0 l 1
320 80 m 1
 400 80 l 1
 400 240 l 1
 320 240 l 1
 320 80 l 1
320 240 m 1
 320 320 l 1
 80 320 l 1
 80 480 l 1
 400 480 l 1
 400 560 l 1
 0 560 l 1
 0 240 l 1
 320 240 l 1
EndSplineSet
EndChar

StartChar: six
Encoding: 54 54 6
Width: 480
Flags: HW
LayerCount: 2
Fore
SplineSet
320 0 m 1
 320 80 l 1
 80 80 l 1
 80 0 l 1
 320 0 l 1
320 80 m 1
 400 80 l 1
 400 240 l 1
 320 240 l 1
 320 80 l 1
80 80 m 1
 80 240 l 1
 320 240 l 1
 320 320 l 1
 80 320 l 1
 80 480 l 1
 0 480 l 1
 0 80 l 1
 80 80 l 1
400 400 m 1
 400 480 l 1
 320 480 l 1
 320 400 l 1
 400 400 l 1
320 480 m 1
 320 560 l 1
 80 560 l 1
 80 480 l 1
 320 480 l 1
EndSplineSet
EndChar

StartChar: seven
Encoding: 55 55 7
Width: 480
Flags: HW
LayerCount: 2
Fore
SplineSet
240 0 m 1
 240 240 l 1
 160 240 l 1
 160 0 l 1
 240 0 l 1
240 240 m 1
 320 240 l 1
 320 320 l 1
 240 320 l 1
 240 240 l 1
320 320 m 1
 400 320 l 1
 400 560 l 1
 0 560 l 1
 0 480 l 1
 320 480 l 1
 320 320 l 1
EndSplineSet
EndChar

StartChar: eight
Encoding: 56 56 8
Width: 480
Flags: HW
LayerCount: 2
Fore
SplineSet
320 0 m 1
 320 80 l 1
 80 80 l 1
 80 0 l 1
 320 0 l 1
320 80 m 1
 400 80 l 1
 400 240 l 1
 320 240 l 1
 320 80 l 1
80 80 m 1
 80 240 l 1
 0 240 l 1
 0 80 l 1
 80 80 l 1
320 240 m 1
 320 320 l 1
 80 320 l 1
 80 240 l 1
 320 240 l 1
320 320 m 1
 400 320 l 1
 400 480 l 1
 320 480 l 1
 320 320 l 1
80 320 m 1
 80 480 l 1
 0 480 l 1
 0 320 l 1
 80 320 l 1
320 480 m 1
 320 560 l 1
 80 560 l 1
 80 480 l 1
 320 480 l 1
EndSplineSet
EndChar

StartChar: nine
Encoding: 57 57 9
Width: 480
Flags: HW
LayerCount: 2
Fore
SplineSet
320 0 m 1
 320 80 l 1
 80 80 l 1
 80 0 l 1
 320 0 l 1
320 80 m 1
 400 80 l 1
 400 480 l 1
 320 480 l 1
 320 320 l 1
 80 320 l 1
 80 240 l 1
 320 240 l 1
 320 80 l 1
80 80 m 1
 80 160 l 1
 0 160 l 1
 0 80 l 1
 80 80 l 1
80 320 m 1
 80 480 l 1
 0 480 l 1
 0 320 l 1
 80 320 l 1
320 480 m 1
 320 560 l 1
 80 560 l 1
 80 480 l 1
 320 480 l 1
EndSplineSet
EndChar

StartChar: colon
Encoding: 58 58 10
Width: 160
Flags: HW
LayerCount: 2
Fore
SplineSet
80 0 m 1
 80 80 l 1
 0 80 l 1
 0 0 l 1
 80 0 l 1
80 320 m 1
 80 400 l 1
 0 400 l 1
 0 320 l 1
 80 320 l 1
EndSplineSet
EndChar

StartChar: semicolon
Encoding: 59 59 11
Width: 240
Flags: HW
LayerCount: 2
Fore
SplineSet
80 0 m 1
 80 80 l 1
 0 80 l 1
 0 0 l 1
 80 0 l 1
80 80 m 1
 160 80 l 1
 160 240 l 1
 80 240 l 1
 80 80 l 1
160 320 m 1
 160 400 l 1
 80 400 l 1
 80 320 l 1
 160 320 l 1
EndSplineSet
EndChar

StartChar: less
Encoding: 60 60 12
Width: 480
Flags: HW
LayerCount: 2
Fore
SplineSet
400 80 m 1
 400 160 l 1
 160 160 l 1
 160 240 l 1
 80 240 l 1
 80 160 l 1
 0 160 l 1
 0 80 l 1
 400 80 l 1
160 240 m 1
 240 240 l 1
 240 320 l 1
 160 320 l 1
 160 240 l 1
240 320 m 1
 320 320 l 1
 320 400 l 1
 240 400 l 1
 240 320 l 1
320 400 m 1
 400 400 l 1
 400 480 l 1
 320 480 l 1
 320 400 l 1
EndSplineSet
EndChar

StartChar: equal
Encoding: 61 61 13
Width: 480
Flags: HW
LayerCount: 2
Fore
SplineSet
400 160 m 1
 400 240 l 1
 0 240 l 1
 0 160 l 1
 400 160 l 1
400 320 m 1
 400 400 l 1
 0 400 l 1
 0 320 l 1
 400 320 l 1
EndSplineSet
EndChar

StartChar: greater
Encoding: 62 62 14
Width: 480
Flags: HW
LayerCount: 2
Fore
SplineSet
400 80 m 1
 400 160 l 1
 320 160 l 1
 320 240 l 1
 240 240 l 1
 240 160 l 1
 0 160 l 1
 0 80 l 1
 400 80 l 1
240 240 m 1
 240 320 l 1
 160 320 l 1
 160 240 l 1
 240 240 l 1
160 320 m 1
 160 400 l 1
 80 400 l 1
 80 320 l 1
 160 320 l 1
80 400 m 1
 80 480 l 1
 0 480 l 1
 0 400 l 1
 80 400 l 1
EndSplineSet
EndChar

StartChar: question
Encoding: 63 63 15
Width: 480
Flags: HW
LayerCount: 2
Fore
SplineSet
240 0 m 1
 240 80 l 1
 160 80 l 1
 160 0 l 1
 240 0 l 1
240 160 m 1
 240 240 l 1
 160 240 l 1
 160 160 l 1
 240 160 l 1
240 240 m 1
 320 240 l 1
 320 320 l 1
 240 320 l 1
 240 240 l 1
320 320 m 1
 400 320 l 1
 400 480 l 1
 320 480 l 1
 320 320 l 1
80 400 m 1
 80 480 l 1
 0 480 l 1
 0 400 l 1
 80 400 l 1
320 480 m 1
 320 560 l 1
 80 560 l 1
 80 480 l 1
 320 480 l 1
EndSplineSet
EndChar

StartChar: at
Encoding: 64 64 16
Width: 480
Flags: HW
LayerCount: 2
Fore
SplineSet
400 0 m 1
 400 80 l 1
 80 80 l 1
 80 0 l 1
 400 0 l 1
80 80 m 1
 80 400 l 1
 0 400 l 1
 0 80 l 1
 80 80 l 1
400 160 m 1
 400 400 l 1
 320 400 l 1
 320 240 l 1
 240 240 l 1
 240 320 l 1
 160 320 l 1
 160 160 l 1
 400 160 l 1
320 400 m 1
 320 480 l 1
 80 480 l 1
 80 400 l 1
 320 400 l 1
EndSplineSet
EndChar

StartChar: A
Encoding: 65 65 17
Width: 480
Flags: HW
LayerCount: 2
Fore
SplineSet
400 0 m 1
 400 400 l 1
 320 400 l 1
 320 320 l 1
 80 320 l 1
 80 400 l 1
 0 400 l 1
 0 0 l 1
 80 0 l 1
 80 240 l 1
 320 240 l 1
 320 0 l 1
 400 0 l 1
320 400 m 1
 320 480 l 1
 240 480 l 1
 240 400 l 1
 320 400 l 1
80 400 m 1
 160 400 l 1
 160 480 l 1
 80 480 l 1
 80 400 l 1
240 480 m 1
 240 560 l 1
 160 560 l 1
 160 480 l 1
 240 480 l 1
EndSplineSet
EndChar

StartChar: B
Encoding: 66 66 18
Width: 480
Flags: HW
LayerCount: 2
Fore
SplineSet
320 0 m 1
 320 80 l 1
 80 80 l 1
 80 240 l 1
 320 240 l 1
 320 80 l 1
 400 80 l 1
 400 240 l 1
 320 240 l 1
 320 320 l 1
 80 320 l 1
 80 480 l 1
 320 480 l 1
 320 320 l 1
 400 320 l 1
 400 480 l 1
 320 480 l 1
 320 560 l 1
 0 560 l 1
 0 0 l 1
 320 0 l 1
EndSplineSet
EndChar

StartChar: C
Encoding: 67 67 19
Width: 480
Flags: HW
LayerCount: 2
Fore
SplineSet
320 0 m 1
 320 80 l 1
 80 80 l 1
 80 0 l 1
 320 0 l 1
320 80 m 1
 400 80 l 1
 400 160 l 1
 320 160 l 1
 320 80 l 1
80 80 m 1
 80 480 l 1
 0 480 l 1
 0 80 l 1
 80 80 l 1
400 400 m 1
 400 480 l 1
 320 480 l 1
 320 400 l 1
 400 400 l 1
320 480 m 1
 320 560 l 1
 80 560 l 1
 80 480 l 1
 320 480 l 1
EndSplineSet
EndChar

StartChar: D
Encoding: 68 68 20
Width: 480
Flags: HW
LayerCount: 2
Fore
SplineSet
240 0 m 1
 240 80 l 1
 80 80 l 1
 80 480 l 1
 240 480 l 1
 240 400 l 1
 320 400 l 1
 320 160 l 1
 240 160 l 1
 240 80 l 1
 320 80 l 1
 320 160 l 1
 400 160 l 1
 400 400 l 1
 320 400 l 1
 320 480 l 1
 240 480 l 1
 240 560 l 1
 0 560 l 1
 0 0 l 1
 240 0 l 1
EndSplineSet
EndChar

StartChar: E
Encoding: 69 69 21
Width: 480
Flags: HW
LayerCount: 2
Fore
SplineSet
400 0 m 1
 400 80 l 1
 80 80 l 1
 80 240 l 1
 240 240 l 1
 240 320 l 1
 80 320 l 1
 80 480 l 1
 400 480 l 1
 400 560 l 1
 0 560 l 1
 0 0 l 1
 400 0 l 1
EndSplineSet
EndChar

StartChar: F
Encoding: 70 70 22
Width: 480
Flags: HW
LayerCount: 2
Fore
SplineSet
80 0 m 1
 80 240 l 1
 240 240 l 1
 240 320 l 1
 80 320 l 1
 80 480 l 1
 400 480 l 1
 400 560 l 1
 0 560 l 1
 0 0 l 1
 80 0 l 1
EndSplineSet
EndChar

StartChar: G
Encoding: 71 71 23
Width: 480
Flags: HW
LayerCount: 2
Fore
SplineSet
320 0 m 1
 320 80 l 1
 80 80 l 1
 80 0 l 1
 320 0 l 1
320 80 m 1
 400 80 l 1
 400 320 l 1
 160 320 l 1
 160 240 l 1
 320 240 l 1
 320 80 l 1
80 80 m 1
 80 480 l 1
 0 480 l 1
 0 80 l 1
 80 80 l 1
400 400 m 1
 400 480 l 1
 320 480 l 1
 320 400 l 1
 400 400 l 1
320 480 m 1
 320 560 l 1
 80 560 l 1
 80 480 l 1
 320 480 l 1
EndSplineSet
EndChar

StartChar: H
Encoding: 72 72 24
Width: 480
Flags: HW
LayerCount: 2
Fore
SplineSet
400 0 m 1
 400 560 l 1
 320 560 l 1
 320 320 l 1
 80 320 l 1
 80 560 l 1
 0 560 l 1
 0 0 l 1
 80 0 l 1
 80 240 l 1
 320 240 l 1
 320 0 l 1
 400 0 l 1
EndSplineSet
EndChar

StartChar: I
Encoding: 73 73 25
Width: 320
Flags: HW
LayerCount: 2
Fore
SplineSet
240 0 m 1
 240 80 l 1
 160 80 l 1
 160 480 l 1
 240 480 l 1
 240 560 l 1
 0 560 l 1
 0 480 l 1
 80 480 l 1
 80 80 l 1
 0 80 l 1
 0 0 l 1
 240 0 l 1
EndSplineSet
EndChar

StartChar: J
Encoding: 74 74 26
Width: 480
Flags: HW
LayerCount: 2
Fore
SplineSet
240 0 m 1
 240 80 l 1
 80 80 l 1
 80 0 l 1
 240 0 l 1
240 80 m 1
 320 80 l 1
 320 480 l 1
 400 480 l 1
 400 560 l 1
 80 560 l 1
 80 480 l 1
 240 480 l 1
 240 80 l 1
80 80 m 1
 80 160 l 1
 0 160 l 1
 0 80 l 1
 80 80 l 1
EndSplineSet
EndChar

StartChar: K
Encoding: 75 75 27
Width: 480
Flags: HW
LayerCount: 2
Fore
SplineSet
400 0 m 1
 400 80 l 1
 320 80 l 1
 320 0 l 1
 400 0 l 1
80 0 m 1
 80 240 l 1
 160 240 l 1
 160 160 l 1
 240 160 l 1
 240 80 l 1
 320 80 l 1
 320 160 l 1
 240 160 l 1
 240 240 l 1
 160 240 l 1
 160 320 l 1
 80 320 l 1
 80 560 l 1
 0 560 l 1
 0 0 l 1
 80 0 l 1
160 320 m 1
 240 320 l 1
 240 400 l 1
 160 400 l 1
 160 320 l 1
240 400 m 1
 320 400 l 1
 320 480 l 1
 240 480 l 1
 240 400 l 1
320 480 m 1
 400 480 l 1
 400 560 l 1
 320 560 l 1
 320 480 l 1
EndSplineSet
EndChar

StartChar: L
Encoding: 76 76 28
Width: 480
Flags: HW
LayerCount: 2
Fore
SplineSet
400 0 m 1
 400 80 l 1
 80 80 l 1
 80 560 l 1
 0 560 l 1
 0 0 l 1
 400 0 l 1
EndSplineSet
EndChar

StartChar: M
Encoding: 77 77 29
Width: 480
Flags: HW
LayerCount: 2
Fore
SplineSet
400 0 m 1
 400 560 l 1
 320 560 l 1
 320 480 l 1
 240 480 l 1
 240 400 l 1
 160 400 l 1
 160 240 l 1
 240 240 l 1
 240 400 l 1
 320 400 l 1
 320 0 l 1
 400 0 l 1
80 0 m 1
 80 400 l 1
 160 400 l 1
 160 480 l 1
 80 480 l 1
 80 560 l 1
 0 560 l 1
 0 0 l 1
 80 0 l 1
EndSplineSet
EndChar

StartChar: N
Encoding: 78 78 30
Width: 480
Flags: HW
LayerCount: 2
Fore
SplineSet
400 0 m 1
 400 560 l 1
 320 560 l 1
 320 320 l 1
 240 320 l 1
 240 240 l 1
 320 240 l 1
 320 0 l 1
 400 0 l 1
80 0 m 1
 80 400 l 1
 160 400 l 1
 160 320 l 1
 240 320 l 1
 240 400 l 1
 160 400 l 1
 160 480 l 1
 80 480 l 1
 80 560 l 1
 0 560 l 1
 0 0 l 1
 80 0 l 1
EndSplineSet
EndChar

StartChar: O
Encoding: 79 79 31
Width: 480
Flags: HW
LayerCount: 2
Fore
SplineSet
320 0 m 1
 320 80 l 1
 80 80 l 1
 80 0 l 1
 320 0 l 1
320 80 m 1
 400 80 l 1
 400 480 l 1
 320 480 l 1
 320 80 l 1
80 80 m 1
 80 480 l 1
 0 480 l 1
 0 80 l 1
 80 80 l 1
320 480 m 1
 320 560 l 1
 80 560 l 1
 80 480 l 1
 320 480 l 1
EndSplineSet
EndChar

StartChar: P
Encoding: 80 80 32
Width: 480
Flags: HW
LayerCount: 2
Fore
SplineSet
80 0 m 1
 80 240 l 1
 320 240 l 1
 320 320 l 1
 80 320 l 1
 80 480 l 1
 320 480 l 1
 320 320 l 1
 400 320 l 1
 400 480 l 1
 320 480 l 1
 320 560 l 1
 0 560 l 1
 0 0 l 1
 80 0 l 1
EndSplineSet
EndChar

StartChar: Q
Encoding: 81 81 33
Width: 480
Flags: HW
LayerCount: 2
Fore
SplineSet
400 0 m 1
 400 80 l 1
 320 80 l 1
 320 0 l 1
 400 0 l 1
240 0 m 1
 240 80 l 1
 80 80 l 1
 80 0 l 1
 240 0 l 1
320 80 m 1
 320 160 l 1
 240 160 l 1
 240 80 l 1
 320 80 l 1
80 80 m 1
 80 480 l 1
 0 480 l 1
 0 80 l 1
 80 80 l 1
320 160 m 1
 400 160 l 1
 400 480 l 1
 320 480 l 1
 320 160 l 1
240 160 m 1
 240 240 l 1
 160 240 l 1
 160 160 l 1
 240 160 l 1
320 480 m 1
 320 560 l 1
 80 560 l 1
 80 480 l 1
 320 480 l 1
EndSplineSet
EndChar

StartChar: R
Encoding: 82 82 34
Width: 480
Flags: HW
LayerCount: 2
Fore
SplineSet
400 0 m 1
 400 80 l 1
 320 80 l 1
 320 0 l 1
 400 0 l 1
80 0 m 1
 80 240 l 1
 160 240 l 1
 160 160 l 1
 240 160 l 1
 240 80 l 1
 320 80 l 1
 320 160 l 1
 240 160 l 1
 240 240 l 1
 320 240 l 1
 320 320 l 1
 80 320 l 1
 80 480 l 1
 320 480 l 1
 320 320 l 1
 400 320 l 1
 400 480 l 1
 320 480 l 1
 320 560 l 1
 0 560 l 1
 0 0 l 1
 80 0 l 1
EndSplineSet
EndChar

StartChar: S
Encoding: 83 83 35
Width: 480
Flags: HW
LayerCount: 2
Fore
SplineSet
320 0 m 1
 320 80 l 1
 0 80 l 1
 0 0 l 1
 320 0 l 1
320 80 m 1
 400 80 l 1
 400 240 l 1
 320 240 l 1
 320 80 l 1
320 240 m 1
 320 320 l 1
 80 320 l 1
 80 240 l 1
 320 240 l 1
80 320 m 1
 80 480 l 1
 0 480 l 1
 0 320 l 1
 80 320 l 1
80 480 m 1
 400 480 l 1
 400 560 l 1
 80 560 l 1
 80 480 l 1
EndSplineSet
EndChar

StartChar: T
Encoding: 84 84 36
Width: 480
Flags: HW
LayerCount: 2
Fore
SplineSet
240 0 m 1
 240 480 l 1
 400 480 l 1
 400 560 l 1
 0 560 l 1
 0 480 l 1
 160 480 l 1
 160 0 l 1
 240 0 l 1
EndSplineSet
EndChar

StartChar: U
Encoding: 85 85 37
Width: 480
Flags: HW
LayerCount: 2
Fore
SplineSet
320 0 m 1
 320 80 l 1
 80 80 l 1
 80 0 l 1
 320 0 l 1
320 80 m 1
 400 80 l 1
 400 560 l 1
 320 560 l 1
 320 80 l 1
80 80 m 1
 80 560 l 1
 0 560 l 1
 0 80 l 1
 80 80 l 1
EndSplineSet
EndChar

StartChar: V
Encoding: 86 86 38
Width: 480
Flags: HW
LayerCount: 2
Fore
SplineSet
240 0 m 1
 240 80 l 1
 160 80 l 1
 160 0 l 1
 240 0 l 1
240 80 m 1
 320 80 l 1
 320 160 l 1
 240 160 l 1
 240 80 l 1
160 80 m 1
 160 160 l 1
 80 160 l 1
 80 80 l 1
 160 80 l 1
320 160 m 1
 400 160 l 1
 400 560 l 1
 320 560 l 1
 320 160 l 1
80 160 m 1
 80 560 l 1
 0 560 l 1
 0 160 l 1
 80 160 l 1
EndSplineSet
EndChar

StartChar: W
Encoding: 87 87 39
Width: 480
Flags: HW
LayerCount: 2
Fore
SplineSet
400 0 m 1
 400 560 l 1
 320 560 l 1
 320 160 l 1
 240 160 l 1
 240 80 l 1
 320 80 l 1
 320 0 l 1
 400 0 l 1
80 0 m 1
 80 80 l 1
 160 80 l 1
 160 160 l 1
 80 160 l 1
 80 560 l 1
 0 560 l 1
 0 0 l 1
 80 0 l 1
240 160 m 1
 240 320 l 1
 160 320 l 1
 160 160 l 1
 240 160 l 1
EndSplineSet
EndChar

StartChar: X
Encoding: 88 88 40
Width: 480
Flags: HW
LayerCount: 2
Fore
SplineSet
400 0 m 1
 400 160 l 1
 320 160 l 1
 320 0 l 1
 400 0 l 1
80 0 m 1
 80 160 l 1
 0 160 l 1
 0 0 l 1
 80 0 l 1
320 160 m 1
 320 240 l 1
 240 240 l 1
 240 160 l 1
 320 160 l 1
80 160 m 1
 160 160 l 1
 160 240 l 1
 80 240 l 1
 80 160 l 1
240 240 m 1
 240 320 l 1
 160 320 l 1
 160 240 l 1
 240 240 l 1
240 320 m 1
 320 320 l 1
 320 400 l 1
 240 400 l 1
 240 320 l 1
160 320 m 1
 160 400 l 1
 80 400 l 1
 80 320 l 1
 160 320 l 1
320 400 m 1
 400 400 l 1
 400 560 l 1
 320 560 l 1
 320 400 l 1
80 400 m 1
 80 560 l 1
 0 560 l 1
 0 400 l 1
 80 400 l 1
EndSplineSet
EndChar

StartChar: Y
Encoding: 89 89 41
Width: 480
Flags: HW
LayerCount: 2
Fore
SplineSet
240 0 m 1
 240 320 l 1
 160 320 l 1
 160 0 l 1
 240 0 l 1
240 320 m 1
 320 320 l 1
 320 400 l 1
 240 400 l 1
 240 320 l 1
160 320 m 1
 160 400 l 1
 80 400 l 1
 80 320 l 1
 160 320 l 1
320 400 m 1
 400 400 l 1
 400 560 l 1
 320 560 l 1
 320 400 l 1
80 400 m 1
 80 560 l 1
 0 560 l 1
 0 400 l 1
 80 400 l 1
EndSplineSet
EndChar

StartChar: Z
Encoding: 90 90 42
Width: 480
Flags: HW
LayerCount: 2
Fore
SplineSet
400 0 m 1
 400 80 l 1
 80 80 l 1
 80 160 l 1
 0 160 l 1
 0 0 l 1
 400 0 l 1
80 160 m 1
 160 160 l 1
 160 240 l 1
 80 240 l 1
 80 160 l 1
160 240 m 1
 240 240 l 1
 240 320 l 1
 160 320 l 1
 160 240 l 1
240 320 m 1
 320 320 l 1
 320 400 l 1
 240 400 l 1
 240 320 l 1
320 400 m 1
 400 400 l 1
 400 560 l 1
 0 560 l 1
 0 480 l 1
 320 480 l 1
 320 400 l 1
EndSplineSet
EndChar

StartChar: bracketleft
Encoding: 91 91 43
Width: 240
Flags: HW
LayerCount: 2
Fore
SplineSet
160 0 m 1
 160 80 l 1
 80 80 l 1
 80 480 l 1
 160 480 l 1
 160 560 l 1
 0 560 l 1
 0 0 l 1
 160 0 l 1
EndSplineSet
EndChar

StartChar: backslash
Encoding: 92 92 44
Width: 320
Flags: HW
LayerCount: 2
Fore
SplineSet
240 0 m 1
 240 160 l 1
 160 160 l 1
 160 0 l 1
 240 0 l 1
160 160 m 1
 160 400 l 1
 80 400 l 1
 80 160 l 1
 160 160 l 1
80 400 m 1
 80 560 l 1
 0 560 l 1
 0 400 l 1
 80 400 l 1
EndSplineSet
EndChar

StartChar: bracketright
Encoding: 93 93 45
Width: 240
Flags: HW
LayerCount: 2
Fore
SplineSet
160 0 m 1
 160 560 l 1
 0 560 l 1
 0 480 l 1
 80 480 l 1
 80 80 l 1
 0 80 l 1
 0 0 l 1
 160 0 l 1
EndSplineSet
EndChar

StartChar: asciicircum
Encoding: 94 94 46
Width: 320
Flags: HW
LayerCount: 2
Fore
SplineSet
240 320 m 1
 240 480 l 1
 160 480 l 1
 160 320 l 1
 240 320 l 1
80 320 m 1
 80 480 l 1
 0 480 l 1
 0 320 l 1
 80 320 l 1
160 480 m 1
 160 560 l 1
 80 560 l 1
 80 480 l 1
 160 480 l 1
EndSplineSet
EndChar

StartChar: underscore
Encoding: 95 95 47
Width: 480
Flags: HW
LayerCount: 2
Fore
SplineSet
400 0 m 1
 400 80 l 1
 0 80 l 1
 0 0 l 1
 400 0 l 1
EndSplineSet
EndChar

StartChar: grave
Encoding: 96 96 48
Width: 240
Flags: HW
LayerCount: 2
Fore
SplineSet
160 400 m 1
 160 480 l 1
 80 480 l 1
 80 400 l 1
 160 400 l 1
80 480 m 1
 80 560 l 1
 0 560 l 1
 0 480 l 1
 80 480 l 1
EndSplineSet
EndChar

StartChar: a
Encoding: 97 97 49
Width: 480
Flags: HW
LayerCount: 2
Fore
SplineSet
400 0 m 1
 400 80 l 1
 320 80 l 1
 320 0 l 1
 400 0 l 1
240 0 m 1
 240 80 l 1
 80 80 l 1
 80 0 l 1
 240 0 l 1
320 80 m 1
 320 320 l 1
 240 320 l 1
 240 240 l 1
 80 240 l 1
 80 160 l 1
 0 160 l 1
 0 80 l 1
 80 80 l 1
 80 160 l 1
 240 160 l 1
 240 80 l 1
 320 80 l 1
240 320 m 1
 240 400 l 1
 80 400 l 1
 80 320 l 1
 240 320 l 1
EndSplineSet
EndChar

StartChar: b
Encoding: 98 98 50
Width: 480
Flags: HW
LayerCount: 2
Fore
SplineSet
320 0 m 1
 320 80 l 1
 80 80 l 1
 80 240 l 1
 160 240 l 1
 160 320 l 1
 80 320 l 1
 80 560 l 1
 0 560 l 1
 0 0 l 1
 320 0 l 1
320 80 m 1
 400 80 l 1
 400 320 l 1
 320 320 l 1
 320 80 l 1
320 320 m 1
 320 400 l 1
 160 400 l 1
 160 320 l 1
 320 320 l 1
EndSplineSet
EndChar

StartChar: c
Encoding: 99 99 51
Width: 480
Flags: HW
LayerCount: 2
Fore
SplineSet
320 0 m 1
 320 80 l 1
 80 80 l 1
 80 0 l 1
 320 0 l 1
320 80 m 1
 400 80 l 1
 400 160 l 1
 320 160 l 1
 320 80 l 1
80 80 m 1
 80 320 l 1
 0 320 l 1
 0 80 l 1
 80 80 l 1
400 240 m 1
 400 320 l 1
 320 320 l 1
 320 240 l 1
 400 240 l 1
320 320 m 1
 320 400 l 1
 80 400 l 1
 80 320 l 1
 320 320 l 1
EndSplineSet
EndChar

StartChar: d
Encoding: 100 100 52
Width: 480
Flags: HW
LayerCount: 2
Fore
SplineSet
400 0 m 1
 400 560 l 1
 320 560 l 1
 320 320 l 1
 240 320 l 1
 240 240 l 1
 320 240 l 1
 320 80 l 1
 80 80 l 1
 80 0 l 1
 400 0 l 1
80 80 m 1
 80 320 l 1
 0 320 l 1
 0 80 l 1
 80 80 l 1
240 320 m 1
 240 400 l 1
 80 400 l 1
 80 320 l 1
 240 320 l 1
EndSplineSet
EndChar

StartChar: e
Encoding: 101 101 53
Width: 480
Flags: HW
LayerCount: 2
Fore
SplineSet
400 0 m 1
 400 80 l 1
 80 80 l 1
 80 0 l 1
 400 0 l 1
80 80 m 1
 80 160 l 1
 320 160 l 1
 320 240 l 1
 80 240 l 1
 80 320 l 1
 0 320 l 1
 0 80 l 1
 80 80 l 1
320 240 m 1
 400 240 l 1
 400 320 l 1
 320 320 l 1
 320 240 l 1
320 320 m 1
 320 400 l 1
 80 400 l 1
 80 320 l 1
 320 320 l 1
EndSplineSet
EndChar

StartChar: f
Encoding: 102 102 54
Width: 400
Flags: HW
LayerCount: 2
Fore
SplineSet
160 0 m 1
 160 240 l 1
 240 240 l 1
 240 320 l 1
 160 320 l 1
 160 480 l 1
 80 480 l 1
 80 320 l 1
 0 320 l 1
 0 240 l 1
 80 240 l 1
 80 0 l 1
 160 0 l 1
320 400 m 1
 320 480 l 1
 240 480 l 1
 240 400 l 1
 320 400 l 1
240 480 m 1
 240 560 l 1
 160 560 l 1
 160 480 l 1
 240 480 l 1
EndSplineSet
EndChar

StartChar: g
Encoding: 103 103 55
Width: 480
Flags: HW
LayerCount: 2
Fore
SplineSet
320 -160 m 1
 320 -80 l 1
 0 -80 l 1
 0 -160 l 1
 320 -160 l 1
320 -80 m 1
 400 -80 l 1
 400 400 l 1
 320 400 l 1
 320 320 l 1
 240 320 l 1
 240 240 l 1
 320 240 l 1
 320 80 l 1
 80 80 l 1
 80 0 l 1
 320 0 l 1
 320 -80 l 1
80 80 m 1
 80 320 l 1
 0 320 l 1
 0 80 l 1
 80 80 l 1
240 320 m 1
 240 400 l 1
 80 400 l 1
 80 320 l 1
 240 320 l 1
EndSplineSet
EndChar

StartChar: h
Encoding: 104 104 56
Width: 480
Flags: HW
LayerCount: 2
Fore
SplineSet
400 0 m 1
 400 320 l 1
 320 320 l 1
 320 0 l 1
 400 0 l 1
80 0 m 1
 80 240 l 1
 160 240 l 1
 160 320 l 1
 80 320 l 1
 80 560 l 1
 0 560 l 1
 0 0 l 1
 80 0 l 1
320 320 m 1
 320 400 l 1
 160 400 l 1
 160 320 l 1
 320 320 l 1
EndSplineSet
EndChar

StartChar: i
Encoding: 105 105 57
Width: 160
Flags: HW
LayerCount: 2
Fore
SplineSet
80 0 m 1
 80 400 l 1
 0 400 l 1
 0 0 l 1
 80 0 l 1
80 480 m 1
 80 560 l 1
 0 560 l 1
 0 480 l 1
 80 480 l 1
EndSplineSet
EndChar

StartChar: j
Encoding: 106 106 58
Width: 320
Flags: HW
LayerCount: 2
Fore
SplineSet
160 -160 m 1
 160 -80 l 1
 80 -80 l 1
 80 -160 l 1
 160 -160 l 1
160 -80 m 1
 240 -80 l 1
 240 400 l 1
 160 400 l 1
 160 -80 l 1
80 -80 m 1
 80 0 l 1
 0 0 l 1
 0 -80 l 1
 80 -80 l 1
240 480 m 1
 240 560 l 1
 160 560 l 1
 160 480 l 1
 240 480 l 1
EndSplineSet
EndChar

StartChar: k
Encoding: 107 107 59
Width: 400
Flags: HW
LayerCount: 2
Fore
SplineSet
320 0 m 1
 320 80 l 1
 240 80 l 1
 240 0 l 1
 320 0 l 1
80 0 m 1
 80 160 l 1
 160 160 l 1
 160 80 l 1
 240 80 l 1
 240 160 l 1
 160 160 l 1
 160 240 l 1
 80 240 l 1
 80 560 l 1
 0 560 l 1
 0 0 l 1
 80 0 l 1
160 240 m 1
 240 240 l 1
 240 320 l 1
 160 320 l 1
 160 240 l 1
240 320 m 1
 320 320 l 1
 320 400 l 1
 240 400 l 1
 240 320 l 1
EndSplineSet
EndChar

StartChar: l
Encoding: 108 108 60
Width: 240
Flags: HW
LayerCount: 2
Fore
SplineSet
160 0 m 1
 160 80 l 1
 80 80 l 1
 80 0 l 1
 160 0 l 1
80 80 m 1
 80 560 l 1
 0 560 l 1
 0 80 l 1
 80 80 l 1
EndSplineSet
EndChar

StartChar: exclam
Encoding: 33 33 62
Width: 160
Flags: HW
LayerCount: 2
Fore
SplineSet
80 0 m 1
 80 80 l 1
 0 80 l 1
 0 0 l 1
 80 0 l 1
80 160 m 1
 80 560 l 1
 0 560 l 1
 0 160 l 1
 80 160 l 1
EndSplineSet
EndChar

StartChar: quotedbl
Encoding: 34 34 63
Width: 320
Flags: HW
LayerCount: 2
Fore
SplineSet
240 400 m 1
 240 560 l 1
 160 560 l 1
 160 400 l 1
 240 400 l 1
80 400 m 1
 80 560 l 1
 0 560 l 1
 0 400 l 1
 80 400 l 1
EndSplineSet
EndChar

StartChar: numbersign
Encoding: 35 35 64
Width: 480
Flags: HW
LayerCount: 2
Fore
SplineSet
320 0 m 1
 320 160 l 1
 400 160 l 1
 400 240 l 1
 320 240 l 1
 320 320 l 1
 400 320 l 1
 400 400 l 1
 320 400 l 1
 320 560 l 1
 240 560 l 1
 240 400 l 1
 160 400 l 1
 160 560 l 1
 80 560 l 1
 80 400 l 1
 0 400 l 1
 0 320 l 1
 80 320 l 1
 80 240 l 1
 0 240 l 1
 0 160 l 1
 80 160 l 1
 80 0 l 1
 160 0 l 1
 160 160 l 1
 240 160 l 1
 240 0 l 1
 320 0 l 1
240 240 m 1
 160 240 l 1
 160 320 l 1
 240 320 l 1
 240 240 l 1
EndSplineSet
EndChar

StartChar: dollar
Encoding: 36 36 65
Width: 480
Flags: HW
LayerCount: 2
Fore
SplineSet
240 0 m 1
 240 80 l 1
 320 80 l 1
 320 160 l 1
 240 160 l 1
 240 240 l 1
 320 240 l 1
 320 160 l 1
 400 160 l 1
 400 320 l 1
 240 320 l 1
 240 400 l 1
 400 400 l 1
 400 480 l 1
 240 480 l 1
 240 560 l 1
 160 560 l 1
 160 480 l 1
 80 480 l 1
 80 400 l 1
 0 400 l 1
 0 240 l 1
 160 240 l 1
 160 160 l 1
 0 160 l 1
 0 80 l 1
 160 80 l 1
 160 0 l 1
 240 0 l 1
160 320 m 1
 80 320 l 1
 80 400 l 1
 160 400 l 1
 160 320 l 1
EndSplineSet
EndChar

StartChar: percent
Encoding: 37 37 66
Width: 480
Flags: HW
LayerCount: 2
Fore
SplineSet
320 0 m 1
 320 160 l 1
 240 160 l 1
 240 0 l 1
 320 0 l 1
80 0 m 1
 80 160 l 1
 0 160 l 1
 0 0 l 1
 80 0 l 1
80 160 m 1
 160 160 l 1
 160 240 l 1
 80 240 l 1
 80 160 l 1
160 240 m 1
 240 240 l 1
 240 320 l 1
 160 320 l 1
 160 240 l 1
240 320 m 1
 320 320 l 1
 320 400 l 1
 240 400 l 1
 240 320 l 1
320 400 m 1
 400 400 l 1
 400 560 l 1
 320 560 l 1
 320 400 l 1
160 400 m 1
 160 560 l 1
 80 560 l 1
 80 400 l 1
 160 400 l 1
EndSplineSet
EndChar

StartChar: ampersand
Encoding: 38 38 67
Width: 480
Flags: HW
LayerCount: 2
Fore
SplineSet
400 0 m 1
 400 80 l 1
 320 80 l 1
 320 0 l 1
 400 0 l 1
240 0 m 1
 240 80 l 1
 80 80 l 1
 80 0 l 1
 240 0 l 1
320 80 m 1
 320 160 l 1
 240 160 l 1
 240 80 l 1
 320 80 l 1
80 80 m 1
 80 160 l 1
 0 160 l 1
 0 80 l 1
 80 80 l 1
320 160 m 1
 400 160 l 1
 400 240 l 1
 320 240 l 1
 320 160 l 1
240 160 m 1
 240 400 l 1
 160 400 l 1
 160 240 l 1
 80 240 l 1
 80 160 l 1
 240 160 l 1
80 240 m 1
 80 400 l 1
 0 400 l 1
 0 240 l 1
 80 240 l 1
160 400 m 1
 160 480 l 1
 80 480 l 1
 80 400 l 1
 160 400 l 1
EndSplineSet
EndChar

StartChar: quotesingle
Encoding: 39 39 68
Width: 160
Flags: HW
LayerCount: 2
Fore
SplineSet
80 400 m 1
 80 560 l 1
 0 560 l 1
 0 400 l 1
 80 400 l 1
EndSplineSet
EndChar

StartChar: parenleft
Encoding: 40 40 69
Width: 240
Flags: HW
LayerCount: 2
Fore
SplineSet
160 0 m 1
 160 80 l 1
 80 80 l 1
 80 0 l 1
 160 0 l 1
80 80 m 1
 80 480 l 1
 0 480 l 1
 0 80 l 1
 80 80 l 1
80 480 m 1
 160 480 l 1
 160 560 l 1
 80 560 l 1
 80 480 l 1
EndSplineSet
EndChar

StartChar: parenright
Encoding: 41 41 70
Width: 240
Flags: HW
LayerCount: 2
Fore
SplineSet
80 0 m 1
 80 80 l 1
 0 80 l 1
 0 0 l 1
 80 0 l 1
80 80 m 1
 160 80 l 1
 160 480 l 1
 80 480 l 1
 80 80 l 1
80 480 m 1
 80 560 l 1
 0 560 l 1
 0 480 l 1
 80 480 l 1
EndSplineSet
EndChar

StartChar: asterisk
Encoding: 42 42 71
Width: 320
Flags: HW
LayerCount: 2
Fore
SplineSet
240 320 m 1
 240 400 l 1
 160 400 l 1
 160 320 l 1
 240 320 l 1
80 320 m 1
 80 400 l 1
 0 400 l 1
 0 320 l 1
 80 320 l 1
160 400 m 1
 160 480 l 1
 80 480 l 1
 80 400 l 1
 160 400 l 1
160 480 m 1
 240 480 l 1
 240 560 l 1
 160 560 l 1
 160 480 l 1
80 480 m 1
 80 560 l 1
 0 560 l 1
 0 480 l 1
 80 480 l 1
EndSplineSet
EndChar

StartChar: plus
Encoding: 43 43 72
Width: 320
Flags: HW
LayerCount: 2
Fore
SplineSet
160 160 m 1
 160 240 l 1
 240 240 l 1
 240 320 l 1
 160 320 l 1
 160 400 l 1
 80 400 l 1
 80 320 l 1
 0 320 l 1
 0 240 l 1
 80 240 l 1
 80 160 l 1
 160 160 l 1
EndSplineSet
EndChar

StartChar: comma
Encoding: 44 44 73
Width: 240
Flags: HW
LayerCount: 2
Fore
SplineSet
80 0 m 1
 80 80 l 1
 0 80 l 1
 0 0 l 1
 80 0 l 1
80 80 m 1
 160 80 l 1
 160 240 l 1
 80 240 l 1
 80 80 l 1
EndSplineSet
EndChar

StartChar: hyphen
Encoding: 45 45 74
Width: 320
Flags: HW
LayerCount: 2
Fore
SplineSet
240 240 m 1
 240 320 l 1
 0 320 l 1
 0 240 l 1
 240 240 l 1
EndSplineSet
EndChar

StartChar: period
Encoding: 46 46 75
Width: 160
Flags: HW
LayerCount: 2
Fore
SplineSet
80 0 m 1
 80 80 l 1
 0 80 l 1
 0 0 l 1
 80 0 l 1
EndSplineSet
EndChar

StartChar: slash
Encoding: 47 47 76
Width: 320
Flags: HW
LayerCount: 2
Fore
SplineSet
80 0 m 1
 80 160 l 1
 0 160 l 1
 0 0 l 1
 80 0 l 1
80 160 m 1
 160 160 l 1
 160 400 l 1
 80 400 l 1
 80 160 l 1
160 400 m 1
 240 400 l 1
 240 560 l 1
 160 560 l 1
 160 400 l 1
EndSplineSet
EndChar

StartChar: m
Encoding: 109 109 77
Width: 480
Flags: HW
LayerCount: 2
Fore
SplineSet
400 0 m 1
 400 320 l 1
 320 320 l 1
 320 0 l 1
 400 0 l 1
240 0 m 1
 240 320 l 1
 160 320 l 1
 160 0 l 1
 240 0 l 1
80 0 m 1
 80 320 l 1
 160 320 l 1
 160 400 l 1
 0 400 l 1
 0 0 l 1
 80 0 l 1
320 320 m 1
 320 400 l 1
 240 400 l 1
 240 320 l 1
 320 320 l 1
EndSplineSet
EndChar

StartChar: n
Encoding: 110 110 78
Width: 480
Flags: HW
LayerCount: 2
Fore
SplineSet
400 0 m 1
 400 320 l 1
 320 320 l 1
 320 0 l 1
 400 0 l 1
80 0 m 1
 80 240 l 1
 160 240 l 1
 160 320 l 1
 80 320 l 1
 80 400 l 1
 0 400 l 1
 0 0 l 1
 80 0 l 1
320 320 m 1
 320 400 l 1
 160 400 l 1
 160 320 l 1
 320 320 l 1
EndSplineSet
EndChar

StartChar: o
Encoding: 111 111 79
Width: 480
Flags: HW
LayerCount: 2
Fore
SplineSet
320 0 m 1
 320 80 l 1
 80 80 l 1
 80 0 l 1
 320 0 l 1
320 80 m 1
 400 80 l 1
 400 320 l 1
 320 320 l 1
 320 80 l 1
80 80 m 1
 80 320 l 1
 0 320 l 1
 0 80 l 1
 80 80 l 1
320 320 m 1
 320 400 l 1
 80 400 l 1
 80 320 l 1
 320 320 l 1
EndSplineSet
EndChar

StartChar: p
Encoding: 112 112 80
Width: 400
Flags: HW
LayerCount: 2
Fore
SplineSet
80 -160 m 5
 80 0 l 5
 240 0 l 5
 240 80 l 5
 80 80 l 5
 80 240 l 5
 160 240 l 5
 160 320 l 5
 80 320 l 5
 80 400 l 5
 0 400 l 5
 0 -160 l 5
 80 -160 l 5
240 80 m 5
 320 80 l 5
 320 320 l 5
 240 320 l 5
 240 80 l 5
240 320 m 5
 240 400 l 5
 160 400 l 5
 160 320 l 5
 240 320 l 5
EndSplineSet
EndChar

StartChar: q
Encoding: 113 113 81
Width: 400
Flags: HW
LayerCount: 2
Fore
SplineSet
320 -160 m 1
 320 400 l 1
 240 400 l 1
 240 320 l 1
 160 320 l 1
 160 240 l 1
 240 240 l 1
 240 80 l 1
 80 80 l 1
 80 0 l 1
 240 0 l 1
 240 -160 l 1
 320 -160 l 1
80 80 m 1
 80 320 l 1
 0 320 l 1
 0 80 l 1
 80 80 l 1
160 320 m 1
 160 400 l 1
 80 400 l 1
 80 320 l 1
 160 320 l 1
EndSplineSet
EndChar

StartChar: r
Encoding: 114 114 82
Width: 400
Flags: HW
LayerCount: 2
Fore
SplineSet
80 0 m 1
 80 240 l 1
 160 240 l 1
 160 320 l 1
 80 320 l 1
 80 400 l 1
 0 400 l 1
 0 0 l 1
 80 0 l 1
160 320 m 1
 320 320 l 1
 320 400 l 1
 160 400 l 1
 160 320 l 1
EndSplineSet
EndChar

StartChar: s
Encoding: 115 115 83
Width: 480
Flags: HW
LayerCount: 2
Fore
SplineSet
320 0 m 1
 320 80 l 1
 0 80 l 1
 0 0 l 1
 320 0 l 1
320 80 m 1
 400 80 l 1
 400 160 l 1
 320 160 l 1
 320 80 l 1
320 160 m 1
 320 240 l 1
 80 240 l 1
 80 160 l 1
 320 160 l 1
80 240 m 1
 80 320 l 1
 0 320 l 1
 0 240 l 1
 80 240 l 1
80 320 m 1
 400 320 l 1
 400 400 l 1
 80 400 l 1
 80 320 l 1
EndSplineSet
EndChar

StartChar: t
Encoding: 116 116 84
Width: 400
Flags: HW
LayerCount: 2
Fore
SplineSet
240 0 m 1
 240 80 l 1
 160 80 l 1
 160 0 l 1
 240 0 l 1
240 80 m 1
 320 80 l 1
 320 160 l 1
 240 160 l 1
 240 80 l 1
160 80 m 1
 160 320 l 1
 240 320 l 1
 240 400 l 1
 160 400 l 1
 160 560 l 1
 80 560 l 1
 80 400 l 1
 0 400 l 1
 0 320 l 1
 80 320 l 1
 80 80 l 1
 160 80 l 1
EndSplineSet
EndChar

StartChar: u
Encoding: 117 117 85
Width: 400
Flags: HW
LayerCount: 2
Fore
SplineSet
320 0 m 1
 320 400 l 1
 240 400 l 1
 240 160 l 1
 160 160 l 1
 160 80 l 1
 80 80 l 1
 80 0 l 1
 160 0 l 1
 160 80 l 1
 240 80 l 1
 240 0 l 1
 320 0 l 1
80 80 m 1
 80 400 l 1
 0 400 l 1
 0 80 l 1
 80 80 l 1
EndSplineSet
EndChar

StartChar: v
Encoding: 118 118 86
Width: 480
Flags: HW
LayerCount: 2
Fore
SplineSet
240 0 m 1
 240 80 l 1
 160 80 l 1
 160 0 l 1
 240 0 l 1
240 80 m 1
 320 80 l 1
 320 160 l 1
 240 160 l 1
 240 80 l 1
160 80 m 1
 160 160 l 1
 80 160 l 1
 80 80 l 1
 160 80 l 1
320 160 m 1
 400 160 l 1
 400 400 l 1
 320 400 l 1
 320 160 l 1
80 160 m 1
 80 400 l 1
 0 400 l 1
 0 160 l 1
 80 160 l 1
EndSplineSet
EndChar

StartChar: w
Encoding: 119 119 87
Width: 480
Flags: HW
LayerCount: 2
Fore
SplineSet
320 0 m 1
 320 80 l 1
 240 80 l 1
 240 0 l 1
 320 0 l 1
160 0 m 1
 160 80 l 1
 80 80 l 1
 80 0 l 1
 160 0 l 1
320 80 m 1
 400 80 l 1
 400 400 l 1
 320 400 l 1
 320 80 l 1
240 80 m 1
 240 240 l 1
 160 240 l 1
 160 80 l 1
 240 80 l 1
80 80 m 1
 80 400 l 1
 0 400 l 1
 0 80 l 1
 80 80 l 1
EndSplineSet
EndChar

StartChar: x
Encoding: 120 120 88
Width: 480
Flags: HW
LayerCount: 2
Fore
SplineSet
400 0 m 1
 400 80 l 1
 320 80 l 1
 320 0 l 1
 400 0 l 1
80 0 m 1
 80 80 l 1
 0 80 l 1
 0 0 l 1
 80 0 l 1
320 80 m 1
 320 160 l 1
 240 160 l 1
 240 80 l 1
 320 80 l 1
80 80 m 1
 160 80 l 1
 160 160 l 1
 80 160 l 1
 80 80 l 1
240 160 m 1
 240 240 l 1
 160 240 l 1
 160 160 l 1
 240 160 l 1
240 240 m 1
 320 240 l 1
 320 320 l 1
 240 320 l 1
 240 240 l 1
160 240 m 1
 160 320 l 1
 80 320 l 1
 80 240 l 1
 160 240 l 1
320 320 m 1
 400 320 l 1
 400 400 l 1
 320 400 l 1
 320 320 l 1
80 320 m 1
 80 400 l 1
 0 400 l 1
 0 320 l 1
 80 320 l 1
EndSplineSet
EndChar

StartChar: y
Encoding: 121 121 89
Width: 480
Flags: HW
LayerCount: 2
Fore
SplineSet
160 -160 m 1
 160 -80 l 1
 0 -80 l 1
 0 -160 l 1
 160 -160 l 1
160 -80 m 1
 240 -80 l 1
 240 80 l 1
 160 80 l 1
 160 -80 l 1
240 80 m 1
 320 80 l 1
 320 240 l 1
 240 240 l 1
 240 80 l 1
160 80 m 1
 160 240 l 1
 80 240 l 1
 80 80 l 1
 160 80 l 1
320 240 m 1
 400 240 l 1
 400 400 l 1
 320 400 l 1
 320 240 l 1
80 240 m 1
 80 400 l 1
 0 400 l 1
 0 240 l 1
 80 240 l 1
EndSplineSet
EndChar

StartChar: z
Encoding: 122 122 90
Width: 480
Flags: HW
LayerCount: 2
Fore
SplineSet
400 0 m 1
 400 80 l 1
 80 80 l 1
 80 160 l 1
 0 160 l 1
 0 0 l 1
 400 0 l 1
80 160 m 1
 320 160 l 1
 320 240 l 1
 80 240 l 1
 80 160 l 1
320 240 m 1
 400 240 l 1
 400 400 l 1
 0 400 l 1
 0 320 l 1
 320 320 l 1
 320 240 l 1
EndSplineSet
EndChar

StartChar: braceleft
Encoding: 123 123 91
Width: 320
Flags: HW
LayerCount: 2
Fore
SplineSet
240 0 m 1
 240 80 l 1
 160 80 l 1
 160 240 l 1
 80 240 l 1
 80 0 l 1
 240 0 l 1
80 240 m 1
 80 320 l 1
 0 320 l 1
 0 240 l 1
 80 240 l 1
80 320 m 1
 160 320 l 1
 160 480 l 1
 240 480 l 1
 240 560 l 1
 80 560 l 1
 80 320 l 1
EndSplineSet
EndChar

StartChar: bar
Encoding: 124 124 92
Width: 160
Flags: HW
LayerCount: 2
Fore
SplineSet
80 0 m 1
 80 240 l 1
 0 240 l 1
 0 0 l 1
 80 0 l 1
80 320 m 1
 80 560 l 1
 0 560 l 1
 0 320 l 1
 80 320 l 1
EndSplineSet
EndChar

StartChar: braceright
Encoding: 125 125 93
Width: 320
Flags: HW
LayerCount: 2
Fore
SplineSet
160 0 m 1
 160 240 l 1
 80 240 l 1
 80 80 l 1
 0 80 l 1
 0 0 l 1
 160 0 l 1
160 240 m 1
 240 240 l 1
 240 320 l 1
 160 320 l 1
 160 240 l 1
160 320 m 1
 160 560 l 1
 0 560 l 1
 0 480 l 1
 80 480 l 1
 80 320 l 1
 160 320 l 1
EndSplineSet
EndChar

StartChar: asciitilde
Encoding: 126 126 94
Width: 480
Flags: HW
LayerCount: 2
Fore
SplineSet
320 240 m 1
 320 320 l 1
 240 320 l 1
 240 240 l 1
 320 240 l 1
320 320 m 1
 400 320 l 1
 400 400 l 1
 320 400 l 1
 320 320 l 1
240 320 m 1
 240 400 l 1
 160 400 l 1
 160 320 l 1
 240 320 l 1
80 320 m 1
 80 400 l 1
 0 400 l 1
 0 320 l 1
 80 320 l 1
160 400 m 1
 160 480 l 1
 80 480 l 1
 80 400 l 1
 160 400 l 1
EndSplineSet
EndChar
